<?xml version="1.0" encoding="UTF-8" standalone="no" ?>
<!DOCTYPE svg PUBLIC "-//W3C//DTD SVG 1.1//EN" "http://www.w3.org/Graphics/SVG/1.1/DTD/svg11.dtd">
<svg xmlns="http://www.w3.org/2000/svg" xmlns:xlink="http://www.w3.org/1999/xlink" version="1.1" width="1080" height="1080" viewBox="0 0 1080 1080" xml:space="preserve">
<desc>Created with Fabric.js 5.2.4</desc>
<defs>
</defs>
<g transform="matrix(1 0 0 1 540 540)" id="e7d75d4d-1eb3-423b-880f-a23e47fc0e30"  >
<rect style="stroke: none; stroke-width: 1; stroke-dasharray: none; stroke-linecap: butt; stroke-dashoffset: 0; stroke-linejoin: miter; stroke-miterlimit: 4; fill: rgb(255,255,255); fill-rule: nonzero; opacity: 1; visibility: hidden;" vector-effect="non-scaling-stroke"  x="-540" y="-540" rx="0" ry="0" width="1080" height="1080" />
</g>
<g transform="matrix(1 0 0 1 540 540)" id="8b636d14-48b4-41c4-84bc-851ea68bd97b"  >
</g>
<g transform="matrix(20.57 0 0 20.57 540 540)"  >
<g style=""   >
		<g transform="matrix(0.09 0 0 0.09 -4.12 -9.76)" id="Capa_1"  >
<path style="stroke: none; stroke-width: 1; stroke-dasharray: none; stroke-linecap: butt; stroke-dashoffset: 0; stroke-linejoin: miter; stroke-miterlimit: 4; fill: rgb(0,216,100); fill-rule: nonzero; opacity: 1;" vector-effect="non-scaling-stroke"  transform=" translate(-199.6, -138.33)" d="M 384.936 125.936 C 392.036 125.936 394.036 116.33600000000001 387.63599999999997 113.436 L 137.73599999999996 2.63600000000001 C 122.53599999999996 -4.16399999999999 104.63599999999997 2.63600000000001 97.83599999999996 17.93600000000001 L 10.335999999999956 214.136 C 3.535999999999956 229.33599999999998 10.335999999999956 247.236 25.635999999999957 254.036 L 76.03599999999996 275.836 C 82.33599999999996 278.636 89.53599999999996 274.036 89.53599999999996 267.136 L 89.53599999999996 183.836 C 89.53599999999996 151.936 115.43599999999995 126.03600000000002 147.33599999999996 126.03600000000002 L 384.9359999999999 126.03600000000002 L 384.9359999999999 125.936 z" stroke-linecap="round" />
</g>
		<g transform="matrix(0.09 0 0 0.09 5.02 4.28)" id="Capa_1"  >
<path style="stroke: none; stroke-width: 1; stroke-dasharray: none; stroke-linecap: butt; stroke-dashoffset: 0; stroke-linejoin: miter; stroke-miterlimit: 4; fill: rgb(64,64,64); fill-rule: nonzero; opacity: 1;" vector-effect="non-scaling-stroke"  transform=" translate(-298.79, -290.79)" d="M 450.336 153.136 L 147.236 153.136 C 130.33599999999998 153.136 116.636 166.83599999999998 116.636 183.736 L 116.636 397.836 C 116.636 414.736 130.33599999999998 428.43600000000004 147.236 428.43600000000004 L 187.93599999999998 428.43600000000004 C 186.93599999999998 422.43600000000004 186.43599999999998 416.336 186.43599999999998 410.136 C 186.43599999999998 403.136 187.13599999999997 396.336 188.33599999999998 389.636 L 155.536 389.636 L 155.536 287.136 L 442.136 287.136 L 442.136 389.53600000000006 L 409.23600000000005 389.53600000000006 C 410.43600000000004 396.23600000000005 411.136 403.03600000000006 411.136 410.03600000000006 C 411.136 416.23600000000005 410.636 422.33600000000007 409.636 428.33600000000007 L 450.336 428.33600000000007 C 467.236 428.33600000000007 480.93600000000004 414.6360000000001 480.93600000000004 397.73600000000005 L 480.93600000000004 183.73600000000005 C 480.936 166.836 467.236 153.136 450.336 153.136 z M 442.136 224.036 L 155.536 224.036 L 155.536 191.936 L 442.136 191.936 L 442.136 224.036 z" stroke-linecap="round" />
</g>
		<g transform="matrix(0.09 0 0 0.09 5.02 15.26)" id="Capa_1"  >
<path style="stroke: none; stroke-width: 1; stroke-dasharray: none; stroke-linecap: butt; stroke-dashoffset: 0; stroke-linejoin: miter; stroke-miterlimit: 4; fill: rgb(0,216,100); fill-rule: nonzero; opacity: 1;" vector-effect="non-scaling-stroke"  transform=" translate(-298.84, -410.04)" d="M 298.836 331.436 C 255.436 331.436 220.23600000000002 366.63599999999997 220.23600000000002 410.03599999999994 C 220.23600000000002 453.4359999999999 255.43600000000004 488.63599999999997 298.836 488.63599999999997 C 342.236 488.63599999999997 377.43600000000004 453.436 377.43600000000004 410.03599999999994 C 377.43600000000004 366.6359999999999 342.236 331.436 298.836 331.436 z M 321.436 441.036 C 318.036 445.236 313.536 448.036 308.33599999999996 449.436 C 306.03599999999994 450.036 305.03599999999994 451.236 305.13599999999997 453.63599999999997 C 305.236 455.936 305.13599999999997 458.236 305.13599999999997 460.63599999999997 C 305.13599999999997 462.736 304.03599999999994 463.83599999999996 302.03599999999994 463.83599999999996 C 299.53599999999994 463.936 297.03599999999994 463.936 294.53599999999994 463.83599999999996 C 292.33599999999996 463.83599999999996 291.33599999999996 462.53599999999994 291.33599999999996 460.436 C 291.33599999999996 458.736 291.33599999999996 457.036 291.33599999999996 455.33599999999996 C 291.33599999999996 451.63599999999997 291.13599999999997 451.436 287.53599999999994 450.83599999999996 C 282.9359999999999 450.13599999999997 278.4359999999999 449.03599999999994 274.23599999999993 447.03599999999994 C 270.9359999999999 445.4359999999999 270.53599999999994 444.63599999999997 271.53599999999994 441.13599999999997 C 272.23599999999993 438.53599999999994 272.9359999999999 435.936 273.73599999999993 433.436 C 274.6359999999999 430.436 275.4359999999999 430.13599999999997 278.23599999999993 431.536 C 282.9359999999999 433.936 287.83599999999996 435.336 293.03599999999994 435.936 C 296.33599999999996 436.33599999999996 299.63599999999997 436.036 302.73599999999993 434.63599999999997 C 308.53599999999994 432.13599999999997 309.4359999999999 425.436 304.53599999999994 421.436 C 302.83599999999996 420.036 301.03599999999994 419.036 299.03599999999994 418.236 C 293.9359999999999 416.036 288.63599999999997 414.336 283.9359999999999 411.436 C 276.1359999999999 406.83599999999996 271.23599999999993 400.436 271.8359999999999 390.936 C 272.4359999999999 380.236 278.5359999999999 373.63599999999997 288.3359999999999 370.036 C 292.3359999999999 368.536 292.4359999999999 368.636 292.4359999999999 364.436 C 292.4359999999999 363.036 292.4359999999999 361.536 292.4359999999999 360.13599999999997 C 292.53599999999994 356.936 293.03599999999994 356.436 296.23599999999993 356.33599999999996 C 297.23599999999993 356.33599999999996 298.23599999999993 356.33599999999996 299.1359999999999 356.33599999999996 C 305.9359999999999 356.33599999999996 305.9359999999999 356.33599999999996 305.9359999999999 363.13599999999997 C 305.9359999999999 367.936 305.9359999999999 367.936 310.73599999999993 368.63599999999997 C 314.33599999999996 369.236 317.83599999999996 370.236 321.23599999999993 371.736 C 323.1359999999999 372.536 323.83599999999996 373.836 323.23599999999993 375.836 C 322.4359999999999 378.736 321.6359999999999 381.736 320.6359999999999 384.536 C 319.73599999999993 387.236 318.8359999999999 387.636 316.23599999999993 386.436 C 310.9359999999999 383.83599999999996 305.4359999999999 382.83599999999996 299.6359999999999 383.13599999999997 C 298.1359999999999 383.236 296.6359999999999 383.436 295.23599999999993 384.03599999999994 C 290.23599999999993 386.23599999999993 289.33599999999996 391.83599999999996 293.6359999999999 395.23599999999993 C 295.8359999999999 396.9359999999999 298.23599999999993 398.23599999999993 300.8359999999999 399.33599999999996 C 305.3359999999999 401.13599999999997 309.7359999999999 402.936 314.0359999999999 405.33599999999996 C 327.236 412.636 330.936 429.536 321.436 441.036 z" stroke-linecap="round" />
</g>
</g>
</g>
</svg>